<?xml version="1.0" encoding="UTF-8" standalone="no"?>
<!DOCTYPE svg PUBLIC "-//W3C//DTD SVG 1.1//EN" "http://www.w3.org/Graphics/SVG/1.1/DTD/svg11.dtd">
<svg xmlns="http://www.w3.org/2000/svg" xmlns:xlink="http://www.w3.org/1999/xlink" version="1.1" width="425.197pt" height="425.197pt" viewBox="0 0 425.197 425.197">
<g enable-background="new">
<path transform="matrix(1,0,0,-1,222.5098,164.4607)" d="M 0 0 L 70.293 0 L 70.293 -22.37 L 35.059 -22.37 L 35.059 -36.554 L 68.453 -36.554 L 68.453 -58.857 L 35.059 -58.857 L 35.059 -74.746 L 71.039 -74.746 L 71.039 -97.808 L 0 -97.808 Z " fill="#222221"/>
<clipPath id="cp0">
<path transform="matrix(1,0,0,-1,0,425.197)" d="M 0 425.197 L 425.197 425.197 L 425.197 0 L 0 0 Z "/>
</clipPath>
<g clip-path="url(#cp0)">
<path transform="matrix(1,0,0,-1,174.8281,189.74919)" d="M 0 0 C 0 8.37 5.217 15.114 12.843 17.586 L 2.226 -8.731 C .819 -6.392 0 -3.557 0 0 M 7.451 -14.092 L 20.607 18.591 C 26.361 18.372 31.171 16.522 39.984 11.169 L 39.984 19.476 C 32.842 23.626 25.841 25.632 18.708 25.632 C 4.171 25.632 -7.672 14.176 -7.672 -.288 C -7.672 -8.125 -5.079 -13.332 -1.162 -17.129 L -17.369 -57.3 L -50.98 25.326 L -58.342 25.326 L -18.479 -73.339 L -16.396 -73.339 L 4.532 -21.347 C 17.477 -28.871 36.078 -30 36.078 -48.117 C 36.078 -59.144 27.59 -67.591 16.688 -67.591 C 9.555 -67.591 3.768 -65.014 -6.463 -57.138 L -6.463 -66.019 C 1.613 -71.744 9.555 -74.609 17.092 -74.609 C 32.033 -74.609 43.752 -62.867 43.752 -47.832 C 43.752 -22.58 19.94 -22.737 7.451 -14.092 " fill="#222221"/>
<path transform="matrix(1,0,0,-1,0,425.197)" d="M 210.486 266.851 L 176.54999 266.851 L 176.54999 273.765 L 210.486 273.765 Z " fill="#222221"/>
<path transform="matrix(1,0,0,-1,160.1807,344.445)" d="M 0 0 L -1.411 -3.65 L -.109 -4.154 C 1.169 -4.647 2.867 -5.304 3.586 -3.444 C 4.277 -1.654 2.534 -.98 1.395 -.54 Z M 3.62 1.967 C 4.643 1.572 5.875 1.096 6.832 -.022 C 7.902 -1.265 8.388 -3.189 7.686 -5.003 C 7.048 -6.653 5.595 -7.854 3.844 -8.168 C 2.348 -8.444 1.115 -7.968 -.187 -7.465 L -2.535 -6.557 L -4.997 -12.926 L -8.996 -11.381 L -2.867 4.475 Z " fill="#222221"/>
<path transform="matrix(1,0,0,-1,178.2983,350.30049)" d="M 0 0 L -.89 -3.785 L .833 -4.189 C 1.912 -4.394 2.179 -4.455 2.672 -4.315 C 3.354 -4.144 3.788 -3.604 3.948 -2.925 C 4.393 -1.033 2.548 -.599 2.087 -.49 Z M 2.892 2.497 C 4.396 2.144 5.901 1.788 7.042 .65 C 7.779 -.138 8.745 -1.8 8.283 -3.765 C 7.633 -6.532 5.269 -7 4.485 -7.175 C 5.537 -8.036 5.969 -9.906 6.133 -10.841 C 6.371 -11.896 6.709 -13.614 6.924 -14.663 L 7.203 -15.984 L 2.664 -14.917 C 2.472 -14.104 1.81 -10.49 1.624 -9.756 C .999 -7.405 .173 -7.211 -.992 -6.937 L -1.598 -6.795 L -3.185 -13.542 L -7.359 -12.56 L -3.467 3.992 Z " fill="#222221"/>
<path transform="matrix(1,0,0,-1,200.75,355.0583)" d="M 0 0 L -3.026 -6.353 L 2.19 -6.783 Z M 8.848 -13.685 L 4.302 -13.311 L 3.188 -9.841 L -4.388 -9.216 L -5.932 -12.464 L -10.403 -12.096 L -2.172 4.281 L 2.721 3.877 Z " fill="#222221"/>
<path transform="matrix(1,0,0,-1,230.2559,355.44898)" d="M 0 0 C -2.053 .782 -4.234 1.256 -6.424 1.104 C -8.388 .968 -9.522 .391 -10.236 -.135 C -11.402 -.964 -12.395 -2.508 -12.246 -4.647 C -12.024 -7.854 -9.213 -9.484 -6.303 -9.282 C -5.258 -9.21 -4.254 -8.915 -3.311 -8.475 L -3.447 -6.485 L -5.885 -6.654 L -6.104 -3.496 L .636 -3.029 L 1.12 -10.018 C -.52 -11.605 -3.223 -12.617 -5.983 -12.809 C -11.43 -13.187 -16.279 -10.274 -16.659 -4.803 C -17.026 .494 -13.01 4.196 -7.017 4.612 C -3.659 4.845 -1.304 4.033 -.255 3.682 Z " fill="#222221"/>
<path transform="matrix(1,0,0,-1,254.5957,354.9021)" d="M 0 0 C .305 -1.311 .761 -3.379 -.246 -5.431 C -1.471 -7.866 -4.043 -9.13 -6.592 -9.724 C -7.878 -10.024 -11.336 -10.778 -14.242 -8.408 C -15.102 -7.687 -15.979 -6.664 -16.602 -3.993 L -18.727 5.135 L -14.551 6.106 L -12.641 -2.099 C -12.482 -2.778 -12.256 -3.749 -11.75 -4.604 C -10.787 -6.325 -8.92 -6.76 -7.293 -6.381 C -4.89 -5.822 -4.141 -3.984 -3.998 -3.056 C -3.876 -2.259 -4.023 -1.627 -4.363 -.171 L -6.273 8.034 L -2.098 9.007 Z " fill="#222221"/>
<path transform="matrix(1,0,0,-1,276.0273,355.16569)" d="M 0 0 L -11.668 -4.604 L -17.91 11.214 L -6.405 15.755 L -5.243 12.809 L -12.758 9.844 L -11.494 6.643 L -4.328 9.471 L -3.156 6.502 L -10.322 3.673 L -8.822 -.131 L -1.145 2.899 Z " fill="#222221"/>
<path transform="matrix(1,0,0,-1,108.2109,315.7722)" d="M 0 0 C .907 .995 2.354 2.544 4.561 2.925 C 7.196 3.354 9.592 2.046 11.43 .37 C 12.356 -.475 14.807 -2.778 14.417 -6.438 C 14.284 -7.532 13.915 -8.814 12.066 -10.841 L 5.748 -17.765 L 2.739 -15.02 L 8.419 -8.796 C 8.89 -8.279 9.562 -7.542 9.99 -6.651 C 10.883 -4.9 10.246 -3.175 9.075 -2.104 C 7.343 -.524 5.446 -.987 4.613 -1.409 C 3.898 -1.769 3.462 -2.248 2.453 -3.353 L -3.227 -9.577 L -6.234 -6.831 Z " fill="#222221"/>
<path transform="matrix(1,0,0,-1,98.3994,291.7243)" d="M 0 0 L 2.063 -2.657 L -.774 -16.162 L 7.537 -9.713 L 9.991 -12.876 L -3.44 -23.297 L -5.691 -20.396 L -3.074 -7.423 L -10.992 -13.566 L -13.432 -10.422 Z " fill="#222221"/>
<path transform="matrix(1,0,0,-1,92.4639,281.7917)" d="M 0 0 L 2.063 -3.511 L -12.591 -12.119 L -14.653 -8.608 Z " fill="#222221"/>
<path transform="matrix(1,0,0,-1,85.8818,268.0251)" d="M 0 0 L .705 -1.605 L -11.921 -15.682 L -13.683 -11.67 L -6.521 -3.871 L -17.026 -4.06 L -18.771 -.092 Z " fill="#222221"/>
<path transform="matrix(1,0,0,-1,77.7422,244.3552)" d="M 0 0 L 3.201 -11.473 L -13.178 -16.042 L -16.334 -4.729 L -13.284 -3.877 L -11.222 -11.268 L -7.908 -10.344 L -9.875 -3.295 L -6.8 -2.438 L -4.834 -9.486 L -.896 -8.387 L -3.002 -.837 Z " fill="#222221"/>
<path transform="matrix(1,0,0,-1,62.0088,235.2829)" d="M 0 0 L 3.855 .513 L 3.635 2.179 C 3.448 3.206 3.414 3.463 3.111 3.854 C 2.712 4.398 2.058 4.598 1.365 4.506 C -.563 4.252 -.326 2.467 -.268 2.02 Z M -3.345 1.707 C -3.537 3.164 -3.729 4.619 -3.061 6.023 C -2.579 6.945 -1.36 8.374 .642 8.641 C 3.46 9.014 4.722 7.078 5.157 6.442 C 5.599 7.672 7.198 8.696 8.017 9.163 C 8.922 9.736 10.413 10.627 11.32 11.179 L 12.46 11.879 L 13.042 7.487 C 12.347 7.037 9.194 5.21 8.569 4.793 C 6.587 3.431 6.693 2.632 6.843 1.505 L 6.92 .919 L 13.79 1.829 L 14.325 -2.21 L -2.53 -4.444 Z " fill="#222221"/>
<path transform="matrix(1,0,0,-1,61.9551,206.73799)" d="M 0 0 C -.58 -1.109 -1.666 -3.114 -1.681 -5.175 C -1.697 -7.541 -.477 -7.621 -.303 -7.623 C .72 -7.629 1.328 -6.047 2.218 -3.733 C 3.004 -1.702 4.316 .703 7.606 .681 C 11.544 .654 12.613 -3.259 12.596 -5.675 C 12.577 -8.397 11.214 -10.97 10.911 -11.369 L 7.248 -11.344 C 8.18 -9.954 9.389 -8.115 9.406 -5.748 C 9.409 -5.227 9.397 -3.332 7.877 -3.322 C 6.756 -3.314 6.4 -4.235 5.613 -6.361 C 4.75 -8.676 3.533 -11.604 -.056 -11.578 C -2.647 -11.561 -4.876 -9.484 -4.848 -5.437 C -4.839 -4.157 -4.678 -2.549 -3.488 .023 Z " fill="#222221"/>
<path transform="matrix(1,0,0,-1,75.4697,195.43669)" d="M 0 0 L -.468 -4.046 L -17.349 -2.095 L -16.882 1.952 Z " fill="#222221"/>
<path transform="matrix(1,0,0,-1,66.4395,170.6072)" d="M 0 0 L -1.346 -5.667 L 12.088 -8.852 L 11.141 -12.837 L -2.293 -9.653 L -3.644 -15.344 L -6.748 -14.608 L -3.104 .736 Z " fill="#222221"/>
<path transform="matrix(1,0,0,-1,77.7334,156.78339)" d="M 0 0 L 7.375 -2.966 L 5.863 -6.726 L -1.512 -3.758 L -12.282 -6.292 L -10.47 -1.788 L -4.196 -.481 L -7.817 4.806 L -6.014 9.288 Z " fill="#222221"/>
<path transform="matrix(1,0,0,-1,89.7598,123.9241)" d="M 0 0 C -1.695 -2.339 -1.48 -5.185 1.244 -7.16 C 4.533 -9.544 7.304 -7.634 8.43 -6.081 C 9.943 -3.991 9.964 -.906 7.239 1.068 C 4.677 2.926 1.848 2.548 0 0 M 11.173 -8.158 C 7.894 -12.681 2.316 -13.112 -1.275 -10.508 C -4.484 -8.183 -6.525 -2.844 -2.912 2.14 C .437 6.76 6.012 7.105 9.604 4.5 C 12.793 2.189 14.855 -3.078 11.173 -8.158 " fill="#222221"/>
<path transform="matrix(1,0,0,-1,108.7305,101.990909)" d="M 0 0 L -4.965 -5.015 L -2.414 -7.54 L 2.551 -2.524 L 4.836 -4.786 L -.129 -9.802 L 4.831 -14.71 L 1.967 -17.604 L -10.114 -5.649 L -2.285 2.262 Z " fill="#222221"/>
<path transform="matrix(1,0,0,-1,143.1504,93.4397)" d="M 0 0 L -10.022 -6.434 L -19.207 7.876 L -9.323 14.221 L -7.613 11.557 L -14.068 7.412 L -12.211 4.516 L -6.054 8.469 L -4.33 5.784 L -10.486 1.831 L -8.278 -1.611 L -1.684 2.624 Z " fill="#222221"/>
<path transform="matrix(1,0,0,-1,162.1562,82.632999)" d="M 0 0 C -1.617 -2.177 -3.214 -3.306 -5.093 -4.152 C -10.816 -6.727 -15.438 -4.079 -17.227 -.101 C -18.985 3.81 -17.911 9.213 -11.928 11.906 C -9.25 13.114 -6.993 13.063 -6.022 12.926 L -4.417 9.356 C -5.236 9.562 -7.658 9.92 -10.207 8.772 C -13.273 7.392 -14.702 4.507 -13.424 1.666 C -12.055 -1.381 -8.825 -1.977 -6.061 -.732 C -4.678 -.11 -3.565 .883 -2.631 2.096 L -1.605 3.569 Z " fill="#222221"/>
<path transform="matrix(1,0,0,-1,173.9648,66.26828)" d="M 0 0 C -2.793 -.741 -4.426 -3.083 -3.564 -6.334 C -2.523 -10.262 .832 -10.532 2.687 -10.04 C 5.182 -9.378 7.148 -7 6.286 -3.748 C 5.475 -.689 3.045 .807 0 0 M 3.498 -13.383 C -1.904 -14.816 -6.499 -11.625 -7.636 -7.336 C -8.651 -3.506 -6.855 1.921 -.903 3.5 C 4.614 4.961 9.152 1.705 10.29 -2.583 C 11.299 -6.391 9.565 -11.774 3.498 -13.383 " fill="#222221"/>
<path transform="matrix(1,0,0,-1,209.1533,74.605197)" d="M 0 0 L -3.351 -.289 L -13.148 9.424 L -12.245 -1.056 L -16.233 -1.4 L -17.691 15.536 L -14.034 15.852 L -4.562 6.611 L -5.423 16.594 L -1.458 16.936 Z " fill="#222221"/>
<path transform="matrix(1,0,0,-1,226.1387,61.778078)" d="M 0 0 C -2.877 .254 -5.209 -1.392 -5.507 -4.744 C -5.866 -8.792 -2.806 -10.188 -.895 -10.358 C 1.675 -10.585 4.334 -9.018 4.631 -5.667 C 4.911 -2.512 3.137 -.277 0 0 M -1.27 -13.779 C -6.835 -13.286 -10.066 -8.72 -9.674 -4.3 C -9.324 -.352 -5.788 4.141 .344 3.598 C 6.027 3.096 9.183 -1.515 8.79 -5.934 C 8.441 -9.858 4.979 -14.332 -1.27 -13.779 " fill="#222221"/>
<path transform="matrix(1,0,0,-1,257.4551,81.9411)" d="M 0 0 L -3.93 1.069 L -1.196 11.102 L -6.819 6.946 L -7.391 7.102 L -10.128 13.532 L -12.861 3.499 L -16.791 4.568 L -12.32 20.978 L -8.871 20.039 L -5.635 12.464 L 1.066 17.333 L 4.471 16.409 Z " fill="#222221"/>
<path transform="matrix(1,0,0,-1,268.1777,86.382999)" d="M 0 0 L -3.758 1.576 L 2.818 17.247 L 6.575 15.671 Z " fill="#222221"/>
<path transform="matrix(1,0,0,-1,288.6064,95.445499)" d="M 0 0 C -2.711 .023 -4.562 .647 -6.353 1.666 C -11.806 4.77 -12.391 10.063 -10.233 13.854 C -8.114 17.58 -3.117 19.897 2.583 16.653 C 5.135 15.201 6.424 13.348 6.885 12.483 L 4.95 9.083 C 4.633 9.865 3.495 12.032 1.067 13.415 C -1.855 15.078 -5.026 14.532 -6.566 11.824 C -8.218 8.921 -6.797 5.962 -4.163 4.461 C -2.846 3.712 -1.389 3.4 .142 3.36 L 1.935 3.4 Z " fill="#222221"/>
<path transform="matrix(1,0,0,-1,309.8516,97.644809)" d="M 0 0 C -.526 1.135 -1.456 3.218 -3.082 4.483 C -4.95 5.938 -5.757 5.018 -5.863 4.88 C -6.491 4.075 -5.606 2.627 -4.311 .513 C -3.179 -1.348 -2.068 -3.855 -4.089 -6.452 C -6.507 -9.559 -10.263 -8.026 -12.169 -6.541 C -14.317 -4.868 -15.527 -2.22 -15.662 -1.736 L -13.412 1.155 C -12.876 -.43 -12.153 -2.51 -10.285 -3.964 C -9.874 -4.285 -8.363 -5.429 -7.43 -4.229 C -6.741 -3.343 -7.256 -2.501 -8.463 -.583 C -9.773 1.512 -11.355 4.26 -9.152 7.094 C -7.561 9.139 -4.558 9.644 -1.362 7.156 C -.354 6.371 .825 5.264 2.143 2.754 Z " fill="#222221"/>
<path transform="matrix(1,0,0,-1,330.5352,118.1189)" d="M 0 0 L -6.609 -2.283 L -3.491 -6.157 Z M -4.131 -15.457 L -6.848 -12.082 L -5.059 -8.938 L -9.587 -3.314 L -12.965 -4.485 L -15.638 -1.165 L 1.684 4.427 L 4.609 .794 Z " fill="#222221"/>
<path transform="matrix(1,0,0,-1,337.5479,152.66819)" d="M 0 0 L -1.643 2.935 L 3.178 15.862 L -6.003 10.728 L -7.958 14.222 L 6.88 22.519 L 8.672 19.315 L 4.148 6.878 L 12.894 11.77 L 14.837 8.296 Z " fill="#222221"/>
<path transform="matrix(1,0,0,-1,354.8857,158.69208)" d="M 0 0 L -9.882 -3.598 L -9.323 -5.133 C -8.554 -7.249 -8.147 -7.782 -7.64 -8.302 C -6.38 -9.582 -4.47 -10.021 -2.198 -9.194 C -.466 -8.563 1.212 -7.271 1.344 -5.006 C 1.409 -3.873 1.069 -2.938 .696 -1.914 Z M 3.903 -1.251 C 4.259 -2.23 4.769 -3.633 4.769 -5.598 C 4.76 -6.963 4.145 -11.321 -.797 -13.12 C -2.39 -13.701 -5.853 -14.532 -8.955 -11.906 C -10.301 -10.759 -11.21 -9.425 -12.173 -6.776 L -14.318 -.878 L 1.652 4.937 Z " fill="#222221"/>
<path transform="matrix(1,0,0,-1,364.1885,195.43819)" d="M 0 0 L -3.693 -.38 L -3.538 -1.887 C -3.443 -2.806 -3.26 -4.596 -1.4 -4.405 C .435 -4.217 .253 -2.451 .162 -1.578 Z M -6.743 -.692 L -10.809 -1.109 L -10.604 -3.089 C -10.461 -4.478 -10.258 -6.458 -8.25 -6.251 C -6.192 -6.04 -6.389 -4.131 -6.558 -2.483 Z M 3.235 -1.74 C 3.354 -2.893 3.446 -3.79 3.235 -4.906 C 2.808 -7.069 1.146 -8.214 -.341 -8.367 C -1.556 -8.491 -3.015 -7.951 -3.96 -6.549 C -4.146 -7.424 -4.728 -10.055 -7.974 -10.389 C -9.462 -10.541 -11.126 -10.189 -12.35 -8.528 C -13.105 -7.511 -13.354 -6.561 -13.54 -4.747 L -14.302 2.65 L 2.604 4.385 Z " fill="#222221"/>
<path transform="matrix(1,0,0,-1,358.375,229.17359)" d="M 0 0 C -1.344 .072 -3.458 .211 -5.151 1.678 C -7.152 3.445 -7.656 6.129 -7.523 8.61 C -7.455 9.862 -7.224 13.217 -4.145 15.232 C -3.214 15.821 -1.988 16.348 .75 16.2 L 10.109 15.695 L 9.89 11.629 L 1.477 12.083 C .779 12.121 -.216 12.175 -1.177 11.941 C -3.097 11.524 -4.031 9.939 -4.117 8.355 C -4.243 6.014 -2.684 4.84 -1.83 4.462 C -1.099 4.139 -.452 4.102 1.042 4.022 L 9.454 3.567 L 9.234 -.498 Z " fill="#222221"/>
<path transform="matrix(1,0,0,-1,359.4346,249.15209)" d="M 0 0 C .788 .975 2.245 2.727 2.663 4.743 C 3.145 7.061 1.964 7.379 1.793 7.414 C .792 7.622 -.116 6.19 -1.44 4.096 C -2.61 2.26 -4.37 .158 -7.592 .827 C -11.446 1.628 -11.727 5.676 -11.235 8.039 C -10.684 10.705 -8.842 12.959 -8.467 13.291 L -4.88 12.548 C -6.066 11.367 -7.613 9.803 -8.094 7.484 C -8.2 6.975 -8.56 5.114 -7.071 4.805 C -5.974 4.578 -5.444 5.41 -4.255 7.34 C -2.954 9.439 -1.187 12.07 2.327 11.342 C 4.864 10.814 6.643 8.342 5.819 4.378 C 5.561 3.126 5.087 1.58 3.416 -.709 Z " fill="#222221"/>
<path transform="matrix(1,0,0,-1,343.9736,257.5866)" d="M 0 0 L 1.248 3.877 L 17.428 -1.333 L 16.18 -5.211 Z " fill="#222221"/>
<path transform="matrix(1,0,0,-1,334.6562,279.45478)" d="M 0 0 L 1.429 3.043 L 14.744 6.652 L 5.223 11.121 L 6.924 14.742 L 22.312 7.52 L 20.752 4.199 L 8.008 .634 L 17.079 -3.623 L 15.389 -7.224 Z " fill="#222221"/>
<path transform="matrix(1,0,0,-1,324.126,295.8142)" d="M 0 0 L 6.647 9.881 L 20.751 .386 L 14.196 -9.357 L 11.569 -7.589 L 15.852 -1.225 L 12.997 .696 L 8.915 -5.373 L 6.267 -3.592 L 10.351 2.479 L 6.959 4.762 L 2.585 -1.74 Z " fill="#222221"/>
<path transform="matrix(1,0,0,-1,321.8984,317.62379)" d="M 0 0 C 1.168 .452 3.306 1.245 4.675 2.784 C 6.247 4.556 5.381 5.419 5.251 5.535 C 4.487 6.214 2.986 5.425 .793 4.269 C -1.138 3.26 -3.71 2.315 -6.17 4.499 C -9.114 7.115 -7.34 10.765 -5.735 12.569 C -3.927 14.604 -1.207 15.642 -.716 15.744 L 2.023 13.311 C .406 12.878 -1.715 12.292 -3.287 10.522 C -3.633 10.132 -4.873 8.698 -3.736 7.69 C -2.897 6.945 -2.023 7.403 -.03 8.483 C 2.145 9.656 4.988 11.057 7.672 8.674 C 9.609 6.952 9.918 3.922 7.229 .896 C 6.38 -.06 5.199 -1.164 2.609 -2.317 Z " fill="#222221"/>
<path transform="matrix(1,0,0,-1,307.3135,331.0144)" d="M 0 0 C 1.217 .294 3.44 .799 4.999 2.146 C 6.79 3.695 6.045 4.667 5.931 4.799 C 5.263 5.571 3.671 4.986 1.346 4.128 C -.7 3.381 -3.374 2.782 -5.526 5.271 C -8.102 8.251 -5.863 11.637 -4.036 13.216 C -1.976 14.997 .856 15.667 1.356 15.704 L 3.752 12.933 C 2.092 12.716 -.087 12.413 -1.878 10.864 C -2.272 10.522 -3.688 9.266 -2.695 8.114 C -1.961 7.267 -1.034 7.606 1.083 8.415 C 3.393 9.294 6.396 10.308 8.743 7.593 C 10.438 5.63 10.347 2.586 7.284 -.063 C 6.316 -.899 5.001 -1.839 2.282 -2.641 Z " fill="#222221"/>
</g>
</g>
</svg>
